<mxfile host="app.diagrams.net" modified="2023-05-25T08:07:01.579Z" agent="Mozilla/5.0 (Windows NT 10.0; Win64; x64) AppleWebKit/537.36 (KHTML, like Gecko) Chrome/113.0.0.0 Safari/537.36" etag="L6f0gJ1dZ4t9VohNbPFJ" version="21.3.2" type="github">
  <diagram name="第 1 页" id="QxQbJvy4nPBrJAT22Lld">
    <mxGraphModel dx="5301" dy="-1058" grid="0" gridSize="10" guides="1" tooltips="1" connect="1" arrows="1" fold="1" page="1" pageScale="1" pageWidth="827" pageHeight="1169" math="0" shadow="0">
      <root>
        <mxCell id="0" />
        <mxCell id="1" parent="0" />
        <mxCell id="_pxwmaP0Z88Tr0jDDTEx-1" style="edgeStyle=orthogonalEdgeStyle;rounded=0;orthogonalLoop=1;jettySize=auto;html=1;exitX=0.5;exitY=1;exitDx=0;exitDy=0;exitPerimeter=0;" edge="1" parent="1" source="_pxwmaP0Z88Tr0jDDTEx-2" target="_pxwmaP0Z88Tr0jDDTEx-4">
          <mxGeometry relative="1" as="geometry" />
        </mxCell>
        <mxCell id="_pxwmaP0Z88Tr0jDDTEx-2" value="开始" style="strokeWidth=2;html=1;shape=mxgraph.flowchart.terminator;whiteSpace=wrap;fontSize=18;" vertex="1" parent="1">
          <mxGeometry x="-2158.63" y="2495" width="116" height="68" as="geometry" />
        </mxCell>
        <mxCell id="_pxwmaP0Z88Tr0jDDTEx-3" style="edgeStyle=orthogonalEdgeStyle;rounded=0;orthogonalLoop=1;jettySize=auto;html=1;exitX=0.5;exitY=1;exitDx=0;exitDy=0;" edge="1" parent="1" source="_pxwmaP0Z88Tr0jDDTEx-4" target="_pxwmaP0Z88Tr0jDDTEx-6">
          <mxGeometry relative="1" as="geometry" />
        </mxCell>
        <mxCell id="_pxwmaP0Z88Tr0jDDTEx-4" value="用户浏览菜单" style="rounded=0;whiteSpace=wrap;html=1;fontSize=18;" vertex="1" parent="1">
          <mxGeometry x="-2160.63" y="2612" width="120" height="60" as="geometry" />
        </mxCell>
        <mxCell id="_pxwmaP0Z88Tr0jDDTEx-5" style="edgeStyle=orthogonalEdgeStyle;rounded=0;orthogonalLoop=1;jettySize=auto;html=1;exitX=0.5;exitY=1;exitDx=0;exitDy=0;" edge="1" parent="1" source="_pxwmaP0Z88Tr0jDDTEx-6" target="_pxwmaP0Z88Tr0jDDTEx-8">
          <mxGeometry relative="1" as="geometry" />
        </mxCell>
        <mxCell id="_pxwmaP0Z88Tr0jDDTEx-6" value="用户选择菜品加入购物车" style="rounded=0;whiteSpace=wrap;html=1;fontSize=18;" vertex="1" parent="1">
          <mxGeometry x="-2160.63" y="2721" width="120" height="60" as="geometry" />
        </mxCell>
        <mxCell id="_pxwmaP0Z88Tr0jDDTEx-7" style="edgeStyle=orthogonalEdgeStyle;rounded=0;orthogonalLoop=1;jettySize=auto;html=1;exitX=0.5;exitY=1;exitDx=0;exitDy=0;entryX=0.5;entryY=0;entryDx=0;entryDy=0;entryPerimeter=0;" edge="1" parent="1" source="_pxwmaP0Z88Tr0jDDTEx-8" target="_pxwmaP0Z88Tr0jDDTEx-11">
          <mxGeometry relative="1" as="geometry" />
        </mxCell>
        <mxCell id="_pxwmaP0Z88Tr0jDDTEx-8" value="用户下单" style="rounded=0;whiteSpace=wrap;html=1;fontSize=18;" vertex="1" parent="1">
          <mxGeometry x="-2160.63" y="2830" width="120" height="60" as="geometry" />
        </mxCell>
        <mxCell id="_pxwmaP0Z88Tr0jDDTEx-9" value="是" style="edgeStyle=orthogonalEdgeStyle;rounded=0;orthogonalLoop=1;jettySize=auto;html=1;exitX=0.5;exitY=1;exitDx=0;exitDy=0;exitPerimeter=0;entryX=0.5;entryY=0;entryDx=0;entryDy=0;" edge="1" parent="1" source="_pxwmaP0Z88Tr0jDDTEx-11" target="_pxwmaP0Z88Tr0jDDTEx-13">
          <mxGeometry relative="1" as="geometry" />
        </mxCell>
        <mxCell id="_pxwmaP0Z88Tr0jDDTEx-10" value="否" style="edgeStyle=orthogonalEdgeStyle;rounded=0;orthogonalLoop=1;jettySize=auto;html=1;exitX=1;exitY=0.5;exitDx=0;exitDy=0;exitPerimeter=0;" edge="1" parent="1" source="_pxwmaP0Z88Tr0jDDTEx-11" target="_pxwmaP0Z88Tr0jDDTEx-14">
          <mxGeometry relative="1" as="geometry" />
        </mxCell>
        <mxCell id="_pxwmaP0Z88Tr0jDDTEx-11" value="&lt;font style=&quot;font-size: 15px;&quot;&gt;用户是否选择桌号&lt;/font&gt;" style="strokeWidth=2;html=1;shape=mxgraph.flowchart.decision;whiteSpace=wrap;" vertex="1" parent="1">
          <mxGeometry x="-2195" y="2939" width="188.75" height="98" as="geometry" />
        </mxCell>
        <mxCell id="_pxwmaP0Z88Tr0jDDTEx-12" style="edgeStyle=orthogonalEdgeStyle;rounded=0;orthogonalLoop=1;jettySize=auto;html=1;exitX=0.5;exitY=1;exitDx=0;exitDy=0;entryX=0.5;entryY=0;entryDx=0;entryDy=0;entryPerimeter=0;" edge="1" parent="1" source="_pxwmaP0Z88Tr0jDDTEx-13" target="_pxwmaP0Z88Tr0jDDTEx-15">
          <mxGeometry relative="1" as="geometry" />
        </mxCell>
        <mxCell id="_pxwmaP0Z88Tr0jDDTEx-13" value="支付完成并生成订单" style="rounded=0;whiteSpace=wrap;html=1;fontSize=18;" vertex="1" parent="1">
          <mxGeometry x="-2160.63" y="3085" width="120" height="60" as="geometry" />
        </mxCell>
        <mxCell id="_pxwmaP0Z88Tr0jDDTEx-14" value="提醒选择桌号" style="rounded=0;whiteSpace=wrap;html=1;fontSize=18;" vertex="1" parent="1">
          <mxGeometry x="-1911.63" y="2958" width="120" height="60" as="geometry" />
        </mxCell>
        <mxCell id="_pxwmaP0Z88Tr0jDDTEx-15" value="结束" style="strokeWidth=2;html=1;shape=mxgraph.flowchart.terminator;whiteSpace=wrap;fontSize=18;" vertex="1" parent="1">
          <mxGeometry x="-2158.63" y="3193" width="116" height="68" as="geometry" />
        </mxCell>
      </root>
    </mxGraphModel>
  </diagram>
</mxfile>
